<?xml version="1.0" encoding="UTF-8" standalone="no"?>
<!-- Created with Inkscape (http://www.inkscape.org/) -->

<svg
   xmlns:dc="http://purl.org/dc/elements/1.1/"
   xmlns:cc="http://creativecommons.org/ns#"
   xmlns:rdf="http://www.w3.org/1999/02/22-rdf-syntax-ns#"
   xmlns:svg="http://www.w3.org/2000/svg"
   xmlns="http://www.w3.org/2000/svg"
   xmlns:sodipodi="http://sodipodi.sourceforge.net/DTD/sodipodi-0.dtd"
   xmlns:inkscape="http://www.inkscape.org/namespaces/inkscape"
   width="568.19745"
   height="125.44617"
   id="svg7636"
   version="1.1"
   inkscape:version="0.48.4 r9939"
   sodipodi:docname="Microsoft Store 2012.svg">
  <defs
     id="defs7638" />
  <sodipodi:namedview
     id="base"
     pagecolor="#ffffff"
     bordercolor="#666666"
     borderopacity="1.0"
     inkscape:pageopacity="0.0"
     inkscape:pageshadow="2"
     inkscape:zoom="1.4"
     inkscape:cx="425.20346"
     inkscape:cy="176.54814"
     inkscape:document-units="px"
     inkscape:current-layer="layer1"
     showgrid="false"
     fit-margin-top="0"
     fit-margin-left="0"
     fit-margin-right="0"
     fit-margin-bottom="0"
     inkscape:window-width="1920"
     inkscape:window-height="1018"
     inkscape:window-x="-8"
     inkscape:window-y="-8"
     inkscape:window-maximized="1" />
  <metadata
     id="metadata7641">
    <rdf:RDF>
      <cc:Work
         rdf:about="">
        <dc:format>image/svg+xml</dc:format>
        <dc:type
           rdf:resource="http://purl.org/dc/dcmitype/StillImage" />
        <dc:title></dc:title>
      </cc:Work>
    </rdf:RDF>
  </metadata>
  <g
     inkscape:label="Layer 1"
     inkscape:groupmode="layer"
     id="layer1"
     transform="translate(-3.4374995e-8,-926.91602)">
    <g
       id="g7715"
       transform="translate(-67.373323,311.03337)">
      <g
         id="g7773">
        <path
           style="font-size:62.03080368px;font-style:normal;font-variant:normal;font-weight:normal;font-stretch:normal;line-height:125%;letter-spacing:0px;word-spacing:0px;fill:#231f20;fill-opacity:1;stroke:none;font-family:Segoe UI;-inkscape-font-specification:Segoe UI"
           d="M 394.84375 40.28125 C 392.17879 40.2813 389.97052 41.2334 388.1875 43.15625 C 386.40447 45.07919 385.53124 47.68896 385.53125 51 L 385.53125 56.125 L 380.46875 56.125 L 380.46875 60.4375 L 385.53125 60.4375 L 385.53125 87.71875 L 390.1875 87.71875 L 390.1875 60.4375 L 396 60.4375 L 403.65625 60.4375 L 403.65625 79.125 C 403.65624 85.29472 406.21763 88.40625 411.375 88.40625 C 413.19634 88.40625 414.70048 88.06435 415.8125 87.40625 L 415.8125 83.09375 C 414.94973 83.79299 413.90743 84.125 412.71875 84.125 C 411.16578 84.125 410.04603 83.68615 409.375 82.78125 C 408.70396 81.87636 408.37499 80.36828 408.375 78.25 L 408.375 60.4375 L 415.8125 60.4375 L 415.8125 56.125 L 408.375 56.125 L 408.375 46.78125 L 403.65625 48.40625 L 403.65625 56.125 L 396 56.125 L 390.1875 56.125 L 390.1875 51.25 C 390.18749 46.78728 391.82735 44.56254 395.125 44.5625 C 396.2945 44.56254 397.36096 44.81977 398.28125 45.375 L 398.28125 40.8125 C 397.43765 40.44236 396.28166 40.2813 394.84375 40.28125 z M 230.15625 41.53125 C 229.31266 41.5313 228.56308 41.84154 227.96875 42.46875 C 227.3744 43.09605 227.09375 43.89777 227.09375 44.84375 C 227.09375 45.78982 227.3744 46.57057 227.96875 47.1875 C 228.56308 47.80451 229.31266 48.09379 230.15625 48.09375 C 231.019 48.09379 231.77106 47.79383 232.375 47.15625 C 232.97893 46.51875 233.28124 45.74868 233.28125 44.84375 C 233.28124 43.89777 232.97893 43.09605 232.375 42.46875 C 231.77106 41.84154 231.019 41.5313 230.15625 41.53125 z M 451.34375 42.75 C 449.56071 42.75004 447.77842 42.96453 446.0625 43.4375 C 444.34658 43.91056 442.84205 44.6272 441.5 45.59375 C 440.15793 46.56038 439.07441 47.79028 438.25 49.28125 C 437.42559 50.7723 437 52.54709 437 54.5625 C 437 56.20779 437.28527 57.62012 437.8125 58.84375 C 438.33974 60.06744 439.04847 61.15844 439.96875 62.125 C 440.88902 63.09161 442.0038 63.97921 443.25 64.78125 C 444.49619 65.58334 445.81206 66.37477 447.25 67.15625 C 448.61122 67.89664 449.88339 68.61288 451.0625 69.28125 C 452.24158 69.94965 453.26222 70.64493 454.125 71.375 C 454.98773 72.1051 455.66733 72.92819 456.15625 73.8125 C 456.64512 74.69684 456.90624 75.71345 456.90625 76.90625 C 456.90624 79.12736 456.15415 80.84873 454.6875 82.03125 C 453.22079 83.21378 450.97168 83.78125 448 83.78125 C 447.13723 83.78125 446.20362 83.71635 445.1875 83.53125 C 444.17136 83.34616 443.19404 83.05809 442.1875 82.71875 C 441.18094 82.37942 440.22317 81.96233 439.3125 81.46875 C 438.4018 80.97518 437.58936 80.42948 436.9375 79.8125 L 436.9375 85.9375 C 437.47433 86.32825 438.20224 86.68123 439.09375 87 C 439.98527 87.31877 440.94054 87.56531 441.9375 87.78125 C 442.93445 87.99719 443.91637 88.16814 444.875 88.28125 C 445.8336 88.39436 446.62938 88.46875 447.28125 88.46875 C 449.2368 88.46875 451.07989 88.2341 452.84375 87.8125 C 454.60758 87.3909 456.17957 86.72727 457.53125 85.78125 C 458.88288 84.83523 459.95432 83.60533 460.75 82.09375 C 461.54562 80.58218 461.93747 78.71123 461.9375 76.53125 C 461.93747 74.88601 461.64722 73.43134 461.0625 72.15625 C 460.47773 70.88119 459.68443 69.73637 458.6875 68.6875 C 457.69052 67.63867 456.54162 66.67628 455.21875 65.8125 C 453.89585 64.94876 452.47625 64.12527 451 63.34375 C 449.56206 62.58284 448.28989 61.88756 447.1875 61.25 C 446.08508 60.61249 445.17314 59.95995 444.40625 59.28125 C 443.63936 58.60261 443.04927 57.85391 442.65625 57.03125 C 442.2632 56.20865 442.06249 55.2249 442.0625 54.09375 C 442.06249 52.88041 442.3261 51.84323 442.84375 51 C 443.36139 50.15684 444.05057 49.47225 444.875 48.9375 C 445.69939 48.40283 446.63301 48.0178 447.6875 47.78125 C 448.74197 47.54478 449.78926 47.43754 450.84375 47.4375 C 454.65902 47.43754 457.78384 48.31526 460.21875 50.125 L 460.21875 44.3125 C 458.35901 43.26369 455.40826 42.75004 451.34375 42.75 z M 175.46875 43.46875 L 175.46875 87.71875 L 180.125 87.71875 L 180.125 58.09375 C 180.12499 54.08347 180.02836 51.20619 179.875 49.4375 L 180 49.4375 C 180.42177 51.47354 180.81612 52.98163 181.21875 53.96875 L 195.28125 87.71875 L 197.65625 87.71875 L 211.75 53.71875 C 212.11423 52.85502 212.53982 51.43241 213 49.4375 L 213.125 49.4375 C 212.85655 52.83088 212.68746 55.68679 212.6875 58.03125 L 212.6875 87.71875 L 217.5 87.71875 L 217.5 43.46875 L 211.4375 43.46875 L 198.53125 74.1875 C 198.03275 75.38032 197.38688 77.19826 196.5625 79.625 L 196.40625 79.625 C 196.11864 78.45276 195.47776 76.67757 194.5 74.3125 L 181.84375 43.46875 L 175.46875 43.46875 z M 475.78125 46.78125 L 471.0625 48.40625 L 471.0625 56.125 L 466 56.125 L 466 60.4375 L 471.0625 60.4375 L 471.0625 79.125 C 471.06249 85.29472 473.65514 88.40625 478.8125 88.40625 C 480.63384 88.40625 482.07548 88.06435 483.1875 87.40625 L 483.1875 83.09375 C 482.32473 83.79299 481.28242 84.125 480.09375 84.125 C 478.54078 84.125 477.45227 83.68615 476.78125 82.78125 C 476.11021 81.87636 475.78125 80.36828 475.78125 78.25 L 475.78125 60.4375 L 483.1875 60.4375 L 483.1875 56.125 L 475.78125 56.125 L 475.78125 46.78125 z M 255.3125 55.375 C 250.6728 55.37503 246.93623 56.96819 244.15625 60.125 C 241.37627 63.28186 239.96875 67.45314 239.96875 72.65625 C 239.96875 77.32468 241.26507 81.13189 243.84375 84.0625 C 246.42243 86.99312 249.83251 88.46875 254.03125 88.46875 C 257.13715 88.46875 259.80015 87.71017 262.0625 86.25 L 262.0625 81.4375 C 259.80015 83.26785 257.38156 84.1875 254.8125 84.1875 C 251.76409 84.1875 249.34302 83.13884 247.53125 81 C 245.71945 78.86117 244.8125 75.92059 244.8125 72.21875 C 244.8125 68.45524 245.79194 65.43867 247.71875 63.125 C 249.64556 60.81138 252.11494 59.65628 255.125 59.65625 C 257.61738 59.65628 259.93934 60.44852 262.125 62.09375 L 262.125 56.9375 C 260.15023 55.90925 257.90074 55.37503 255.3125 55.375 z M 302.75 55.375 C 298.14865 55.37503 294.48453 56.86175 291.78125 59.84375 C 289.07795 62.8258 287.71875 66.97532 287.71875 72.28125 C 287.71875 77.15534 289.02714 81.08008 291.625 84.03125 C 294.22284 86.98243 297.71037 88.46875 302.0625 88.46875 C 306.52964 88.46875 310.06335 86.93969 312.71875 83.90625 C 315.37407 80.87281 316.71873 76.81986 316.71875 71.78125 C 316.71873 66.63984 315.49486 62.61854 313.03125 59.71875 C 310.56758 56.81901 307.14044 55.37503 302.75 55.375 z M 333.8125 55.375 C 332.37457 55.37503 330.97664 55.57803 329.625 55.96875 C 328.27334 56.35953 327.05447 56.94757 326 57.71875 C 324.94551 58.48999 324.10142 59.45238 323.46875 60.59375 C 322.83606 61.73517 322.53125 63.01929 322.53125 64.5 C 322.53125 65.7134 322.69573 66.78263 323.03125 67.6875 C 323.36676 68.59241 323.86981 69.4155 324.53125 70.125 C 325.19269 70.83453 325.98137 71.46571 326.96875 72.03125 C 327.95611 72.59682 329.13376 73.16349 330.4375 73.71875 C 331.37693 74.10951 332.24766 74.48386 333.0625 74.84375 C 333.87731 75.20366 334.58355 75.61007 335.1875 76.0625 C 335.79141 76.51496 336.2703 77.03889 336.625 77.625 C 336.97967 78.21113 337.15623 78.90681 337.15625 79.75 C 337.15623 82.71147 335.0787 84.1875 330.9375 84.1875 C 327.85075 84.1875 325.03783 83.19226 322.46875 81.15625 L 322.46875 86.5625 C 324.69273 87.81701 327.31452 88.46875 330.34375 88.46875 C 331.87752 88.46875 333.35041 88.27643 334.75 87.90625 C 336.14958 87.53607 337.39508 86.94843 338.46875 86.1875 C 339.54238 85.42657 340.38896 84.49543 341.03125 83.34375 C 341.6735 82.19208 341.99998 80.813 342 79.25 C 341.99998 77.97494 341.79926 76.89422 341.40625 75.96875 C 341.0132 75.04331 340.44728 74.20953 339.71875 73.5 C 338.99018 72.7905 338.09778 72.15932 337.0625 71.59375 C 336.02718 71.02821 334.8662 70.47223 333.5625 69.9375 C 332.58471 69.5262 331.70439 69.16214 330.9375 68.8125 C 330.17061 68.4629 329.53681 68.0569 329 67.625 C 328.46317 67.19314 328.05924 66.71155 327.78125 66.15625 C 327.50324 65.601 327.34374 64.9164 327.34375 64.09375 C 327.34374 63.43567 327.50324 62.82627 327.78125 62.28125 C 328.05924 61.73628 328.42942 61.26578 328.9375 60.875 C 329.44555 60.48428 330.07187 60.18472 330.78125 59.96875 C 331.49062 59.75284 332.30556 59.65628 333.1875 59.65625 C 336.00581 59.65628 338.45851 60.41566 340.625 61.9375 L 340.625 56.8125 C 338.61188 55.86651 336.3624 55.37503 333.8125 55.375 z M 362.21875 55.375 C 357.61739 55.37503 353.95328 56.86175 351.25 59.84375 C 348.54669 62.8258 347.1875 66.97532 347.1875 72.28125 C 347.1875 77.15534 348.49589 81.08008 351.09375 84.03125 C 353.69158 86.98243 357.17912 88.46875 361.53125 88.46875 C 365.99838 88.46875 369.5321 86.93969 372.1875 83.90625 C 374.84283 80.87281 376.18747 76.81986 376.1875 71.78125 C 376.18747 66.63984 374.96361 62.61854 372.5 59.71875 C 370.03633 56.81901 366.60919 55.37503 362.21875 55.375 z M 502.5625 55.375 C 497.96115 55.37503 494.29703 56.86175 491.59375 59.84375 C 488.89045 62.8258 487.53125 66.97532 487.53125 72.28125 C 487.53125 77.15534 488.83964 81.08008 491.4375 84.03125 C 494.03534 86.98243 497.52287 88.46875 501.875 88.46875 C 506.34214 88.46875 509.87585 86.93969 512.53125 83.90625 C 515.18658 80.87281 516.53122 76.81986 516.53125 71.78125 C 516.53122 66.63984 515.30736 62.61854 512.84375 59.71875 C 510.38008 56.81901 506.95294 55.37503 502.5625 55.375 z M 556.125 55.375 C 552.27136 55.37503 549.00409 56.93614 546.40625 60.03125 C 543.8084 63.12642 542.5 67.11606 542.5 72.03125 C 542.5 77.23439 543.68513 81.28734 546.0625 84.15625 C 548.43986 87.02517 551.74585 88.46875 555.90625 88.46875 C 560.16248 88.46875 563.59921 87.45294 566.1875 85.4375 L 566.1875 80.6875 C 563.40749 83.032 560.34803 84.1875 557.03125 84.1875 C 554.0787 84.1875 551.74965 83.22512 550.0625 81.3125 C 548.37533 79.3999 547.48293 76.70425 547.40625 73.1875 L 568.1875 73.1875 L 568.1875 70.53125 C 568.18747 65.78059 567.17142 62.07982 565.0625 59.40625 C 562.95352 56.73274 559.97861 55.37503 556.125 55.375 z M 281.8125 55.5625 C 280.10615 55.56253 278.5679 56.19331 277.1875 57.4375 C 275.80708 58.68176 274.76478 60.40393 274.09375 62.625 L 273.96875 62.625 L 273.96875 56.125 L 269.25 56.125 L 269.25 87.71875 L 273.96875 87.71875 L 273.96875 71.625 C 273.96874 68.10828 274.64834 65.31728 276 63.28125 C 277.35163 61.24527 279.01815 60.21878 281.03125 60.21875 C 282.58419 60.21878 283.80057 60.57136 284.625 61.25 L 284.625 56 C 283.97312 55.71211 283.03951 55.56253 281.8125 55.5625 z M 536.59375 55.5625 C 534.8874 55.56253 533.34915 56.19331 531.96875 57.4375 C 530.58834 58.68176 529.54602 60.40393 528.875 62.625 L 528.78125 62.625 L 528.78125 56.125 L 524.0625 56.125 L 524.0625 87.71875 L 528.78125 87.71875 L 528.78125 71.625 C 528.78124 68.10828 529.46086 65.31728 530.8125 63.28125 C 532.16415 61.24527 533.86189 60.21878 535.875 60.21875 C 537.42793 60.21878 538.61309 60.57136 539.4375 61.25 L 539.4375 56 C 538.78563 55.71211 537.82076 55.56253 536.59375 55.5625 z M 227.75 56.125 L 227.75 87.71875 L 232.4375 87.71875 L 232.4375 56.125 L 227.75 56.125 z M 302.375 59.65625 C 305.42337 59.65628 307.79824 60.70494 309.4375 62.84375 C 311.0767 64.98261 311.87498 68.02015 311.875 71.96875 C 311.87498 75.87625 311.0767 78.91299 309.4375 81.03125 C 307.79824 83.14952 305.42337 84.1875 302.375 84.1875 C 299.38411 84.1875 297.00177 83.12816 295.21875 80.96875 C 293.43572 78.80936 292.56249 75.83672 292.5625 72.09375 C 292.56249 68.20685 293.42364 65.17959 295.1875 62.96875 C 296.95134 60.75796 299.34575 59.65628 302.375 59.65625 z M 361.84375 59.65625 C 364.89212 59.65628 367.267 60.70494 368.90625 62.84375 C 370.54545 64.98261 371.34373 68.02015 371.34375 71.96875 C 371.34373 75.87625 370.54545 78.91299 368.90625 81.03125 C 367.267 83.14952 364.89212 84.1875 361.84375 84.1875 C 358.85286 84.1875 356.47051 83.12816 354.6875 80.96875 C 352.90446 78.80936 352.03124 75.83672 352.03125 72.09375 C 352.03124 68.20685 352.89238 65.17959 354.65625 62.96875 C 356.42009 60.75796 358.81451 59.65628 361.84375 59.65625 z M 502.1875 59.65625 C 505.23587 59.65628 507.61075 60.70494 509.25 62.84375 C 510.8892 64.98261 511.68747 68.02015 511.6875 71.96875 C 511.68747 75.87625 510.8892 78.91299 509.25 81.03125 C 507.61075 83.14952 505.23587 84.1875 502.1875 84.1875 C 499.19661 84.1875 496.81427 83.12816 495.03125 80.96875 C 493.24822 78.80936 492.37499 75.83672 492.375 72.09375 C 492.37499 68.20685 493.23615 65.17959 495 62.96875 C 496.76384 60.75796 499.15825 59.65628 502.1875 59.65625 z M 556.03125 59.65625 C 558.3319 59.65628 560.11209 60.43784 561.40625 62.0625 C 562.70035 63.68722 563.3558 65.98594 563.375 68.90625 L 547.46875 68.90625 C 547.83302 66.15047 548.79079 63.89448 550.34375 62.1875 C 551.8967 60.48057 553.80724 59.65628 556.03125 59.65625 z "
           transform="translate(67.373323,615.88265)"
           id="text7655" />
        <g
           id="g7622"
           transform="matrix(0.35622495,0,0,0.35062252,7.3271549,460.03094)">
          <path
             id="rect7572"
             d="m 168.5625,444.5 0,171.4375 171.4375,0 0,-171.4375 -171.4375,0 z"
             style="fill:#d03f42;fill-opacity:1;stroke:none"
             inkscape:connector-curvature="0" />
          <path
             id="rect7574"
             d="m 216.28125,489.375 0,126.6875 123.84375,0 0,-126.6875 -123.84375,0 z"
             style="fill:#da773c;fill-opacity:1;stroke:none"
             inkscape:connector-curvature="0" />
          <path
             id="rect7576"
             d="m 257.59375,532.09375 0,84.09375 82.65625,0 0,-84.09375 -82.65625,0 z"
             style="fill:#e39735;fill-opacity:1;stroke:none"
             inkscape:connector-curvature="0" />
          <path
             id="rect7578"
             d="m 168.5625,630.875 0,171.40625 171.4375,0 0,-171.40625 -171.4375,0 z"
             style="fill:#3c68ac;fill-opacity:1;stroke:none"
             inkscape:connector-curvature="0" />
          <path
             id="rect7580"
             d="m 216.28125,630.71875 0,126.71875 123.84375,0 0,-126.71875 -123.84375,0 z"
             style="fill:#467bc0;fill-opacity:1;stroke:none"
             inkscape:connector-curvature="0" />
          <path
             id="rect7582"
             d="m 257.59375,630.59375 0,84.09375 82.65625,0 0,-84.09375 -82.65625,0 z"
             style="fill:#84acdd;fill-opacity:1;stroke:none"
             inkscape:connector-curvature="0" />
          <path
             id="rect7584"
             d="m 353.3125,444.5 0,171.4375 171.4375,0 0,-171.4375 -171.4375,0 z"
             style="fill:#7ab951;fill-opacity:1;stroke:none"
             inkscape:connector-curvature="0" />
          <path
             id="rect7586"
             d="m 353.1875,489.375 0,126.6875 123.84375,0 0,-126.6875 -123.84375,0 z"
             style="fill:#91bf4e;fill-opacity:1;stroke:none"
             inkscape:connector-curvature="0" />
          <path
             id="rect7588"
             d="m 353.0625,532.09375 0,84.09375 82.65625,0 0,-84.09375 -82.65625,0 z"
             style="fill:#c5d743;fill-opacity:1;stroke:none"
             inkscape:connector-curvature="0" />
          <path
             id="rect7590"
             d="m 353.3125,630.875 0,171.40625 171.4375,0 0,-171.40625 -171.4375,0 z"
             style="fill:#ecb842;fill-opacity:1;stroke:none"
             inkscape:connector-curvature="0" />
          <path
             id="rect7592"
             d="m 353.1875,630.71875 0,126.71875 123.84375,0 0,-126.71875 -123.84375,0 z"
             style="fill:#f3d332;fill-opacity:1;stroke:none"
             inkscape:connector-curvature="0" />
          <path
             id="rect7594"
             d="m 353.0625,630.59375 0,84.09375 82.65625,0 0,-84.09375 -82.65625,0 z"
             style="fill:#f8e67a;fill-opacity:1;stroke:none"
             inkscape:connector-curvature="0" />
        </g>
      </g>
    </g>
  </g>
</svg>
